<svg xmlns="http://www.w3.org/2000/svg" xmlns:xlink="http://www.w3.org/1999/xlink" width="500" zoomAndPan="magnify" viewBox="0 0 375 374.999991" height="500" preserveAspectRatio="xMidYMid meet" version="1.0"><defs><clipPath id="dc1265d4b1"><path d="M 37.5 61.875 L 337.5 61.875 L 337.5 111 L 37.5 111 Z M 37.5 61.875 " clip-rule="nonzero"/></clipPath><clipPath id="c8a1ae29b9"><path d="M 37.5 163 L 337.5 163 L 337.5 212 L 37.5 212 Z M 37.5 163 " clip-rule="nonzero"/></clipPath><clipPath id="5b21036b39"><path d="M 37.5 264 L 337.5 264 L 337.5 313.125 L 37.5 313.125 Z M 37.5 264 " clip-rule="nonzero"/></clipPath></defs><g clip-path="url(#dc1265d4b1)"><path fill="#000000" d="M 313.082031 110.753906 L 61.917969 110.753906 C 48.433594 110.753906 37.5 99.824219 37.5 86.335938 C 37.5 72.851562 48.433594 61.917969 61.917969 61.917969 L 313.082031 61.917969 C 326.566406 61.917969 337.5 72.851562 337.5 86.335938 C 337.5 99.824219 326.566406 110.753906 313.082031 110.753906 Z M 313.082031 110.753906 " fill-opacity="1" fill-rule="nonzero"/></g><g clip-path="url(#c8a1ae29b9)"><path fill="#000000" d="M 313.082031 211.917969 L 61.917969 211.917969 C 48.433594 211.917969 37.5 200.984375 37.5 187.5 C 37.5 174.015625 48.433594 163.082031 61.917969 163.082031 L 313.082031 163.082031 C 326.566406 163.082031 337.5 174.015625 337.5 187.5 C 337.5 200.984375 326.566406 211.917969 313.082031 211.917969 Z M 313.082031 211.917969 " fill-opacity="1" fill-rule="nonzero"/></g><g clip-path="url(#5b21036b39)"><path fill="#000000" d="M 313.082031 313.082031 L 61.917969 313.082031 C 48.433594 313.082031 37.5 302.148438 37.5 288.664062 C 37.5 275.175781 48.433594 264.246094 61.917969 264.246094 L 313.082031 264.246094 C 326.566406 264.246094 337.5 275.175781 337.5 288.664062 C 337.5 302.148438 326.566406 313.082031 313.082031 313.082031 Z M 313.082031 313.082031 " fill-opacity="1" fill-rule="nonzero"/></g></svg>