<svg xmlns="http://www.w3.org/2000/svg" xmlns:xlink="http://www.w3.org/1999/xlink" width="1024" zoomAndPan="magnify" viewBox="0 0 768 767.999994" height="1024" preserveAspectRatio="xMidYMid meet" version="1.0"><defs><g/></defs><rect x="-76.8" width="921.6" fill="#ffffff" y="-76.799999" height="921.599993" fill-opacity="1"/><rect x="-76.8" width="921.6" fill="#ffffff" y="-76.799999" height="921.599993" fill-opacity="1"/><g fill="#6ad4b8" fill-opacity="1"><g transform="translate(87.013586, 365.232424)"><g><path d="M 35.042969 0 C 32.375 -2.664062 31.585938 -6.019531 31.585938 -11.648438 L 31.585938 -38.496094 C 31.585938 -49.453125 35.730469 -52.511719 40.273438 -52.511719 C 44.617188 -52.511719 45.898438 -48.269531 45.898438 -43.726562 L 45.898438 -11.648438 C 45.898438 -6.019531 45.109375 -2.664062 42.445312 0 L 75.511719 0 C 72.847656 -2.664062 72.054688 -6.019531 72.054688 -11.648438 L 72.054688 -28.527344 L 71.957031 -40.273438 C 72.453125 -49.75 76.398438 -52.511719 80.644531 -52.511719 C 84.988281 -52.511719 86.269531 -48.269531 86.269531 -43.726562 L 86.269531 -11.648438 C 86.269531 -6.019531 85.480469 -2.664062 82.816406 0 L 115.882812 0 C 113.21875 -2.664062 112.429688 -6.019531 112.429688 -11.648438 L 112.429688 -28.527344 L 112.328125 -47.378906 C 112.328125 -57.644531 109.863281 -70.574219 95.449219 -70.574219 C 78.769531 -70.574219 76.695312 -56.855469 72.648438 -56.855469 C 72.351562 -56.855469 71.464844 -56.65625 70.773438 -57.941406 C 68.996094 -64.851562 64.652344 -70.574219 55.078125 -70.574219 C 38.398438 -70.574219 36.324219 -56.855469 32.277344 -56.855469 C 31.882812 -56.855469 31.585938 -56.855469 31.585938 -59.222656 L 31.585938 -60.902344 C 31.585938 -65.9375 30.402344 -69.09375 26.15625 -69.09375 L 1.972656 -69.09375 C 4.640625 -66.429688 5.429688 -63.074219 5.429688 -57.449219 L 5.429688 -11.648438 C 5.429688 -6.019531 4.640625 -2.664062 1.972656 0 Z M 35.042969 0 "/></g></g></g><g fill="#6ad4b8" fill-opacity="1"><g transform="translate(203.389225, 365.232424)"><g><path d="M 2.46875 -32.671875 C 2.46875 -13.226562 19.644531 1.480469 38.59375 1.480469 C 57.546875 1.480469 65.9375 -11.945312 65.9375 -19.445312 C 65.9375 -21.125 65.046875 -21.519531 64.355469 -21.519531 C 62.382812 -21.519531 60.902344 -16.386719 51.523438 -16.386719 C 40.175781 -16.386719 24.28125 -26.550781 24.28125 -30.105469 C 24.28125 -31.785156 25.566406 -31.683594 26.550781 -31.683594 C 43.925781 -31.683594 65.441406 -27.835938 65.441406 -44.222656 C 65.441406 -57.84375 55.472656 -70.574219 37.902344 -70.574219 C 14.804688 -70.574219 2.46875 -54.289062 2.46875 -32.671875 Z M 13.523438 -50.734375 C 13.523438 -56.363281 19.347656 -59.816406 24.875 -59.816406 C 33.164062 -59.816406 45.011719 -54.089844 45.011719 -43.824219 C 45.011719 -37.210938 34.054688 -36.421875 24.777344 -36.421875 C 16.78125 -36.421875 13.523438 -43.726562 13.523438 -50.734375 Z M 13.523438 -50.734375 "/></g></g></g><g fill="#6ad4b8" fill-opacity="1"><g transform="translate(271.299698, 365.232424)"><g><path d="M 0.988281 0 L 34.054688 0 C 31.390625 -2.664062 30.597656 -6.019531 30.597656 -11.648438 L 30.597656 -38.496094 C 30.597656 -43.925781 31.785156 -51.425781 40.074219 -51.425781 C 49.648438 -51.425781 48.5625 -42.742188 52.808594 -42.742188 C 54.585938 -42.742188 56.855469 -47.972656 59.621094 -53.402344 C 62.085938 -58.335938 64.949219 -63.46875 64.949219 -64.652344 C 64.949219 -68.503906 57.84375 -70.574219 52.609375 -70.574219 C 37.113281 -70.574219 34.746094 -56.855469 31.289062 -56.855469 C 30.894531 -56.855469 30.597656 -56.855469 30.597656 -59.222656 L 30.597656 -60.902344 C 30.597656 -65.9375 29.414062 -69.09375 25.171875 -69.09375 L 0.988281 -69.09375 C 3.652344 -66.429688 4.441406 -63.074219 4.441406 -57.449219 L 4.441406 -11.648438 C 4.441406 -6.019531 3.652344 -2.664062 0.988281 0 Z M 0.988281 0 "/></g></g></g><g fill="#6ad4b8" fill-opacity="1"><g transform="translate(337.236031, 365.232424)"><g><path d="M 2.46875 -32.671875 C 2.46875 -13.226562 19.644531 1.480469 38.59375 1.480469 C 57.546875 1.480469 65.9375 -11.945312 65.9375 -19.445312 C 65.9375 -21.125 65.046875 -21.519531 64.355469 -21.519531 C 62.382812 -21.519531 60.902344 -16.386719 51.523438 -16.386719 C 37.015625 -16.386719 13.128906 -33.265625 13.128906 -49.355469 C 13.128906 -55.277344 16.1875 -59.621094 21.914062 -59.621094 C 28.328125 -59.621094 34.644531 -54.585938 38.691406 -48.859375 C 42.050781 -44.121094 40.964844 -40.570312 43.332031 -40.570312 C 44.8125 -40.570312 50.144531 -45.703125 54.289062 -49.355469 C 57.84375 -52.511719 62.382812 -55.96875 62.382812 -58.535156 C 62.382812 -63.273438 49.453125 -70.574219 38.792969 -70.574219 C 14.113281 -70.574219 2.46875 -53.203125 2.46875 -32.671875 Z M 2.46875 -32.671875 "/></g></g></g><g fill="#6ad4b8" fill-opacity="1"><g transform="translate(405.146504, 365.232424)"><g><path d="M 2.46875 -32.671875 C 2.46875 -13.226562 19.644531 1.480469 38.59375 1.480469 C 57.546875 1.480469 65.9375 -11.945312 65.9375 -19.445312 C 65.9375 -21.125 65.046875 -21.519531 64.355469 -21.519531 C 62.382812 -21.519531 60.902344 -16.386719 51.523438 -16.386719 C 40.175781 -16.386719 24.28125 -26.550781 24.28125 -30.105469 C 24.28125 -31.785156 25.566406 -31.683594 26.550781 -31.683594 C 43.925781 -31.683594 65.441406 -27.835938 65.441406 -44.222656 C 65.441406 -57.84375 55.472656 -70.574219 37.902344 -70.574219 C 14.804688 -70.574219 2.46875 -54.289062 2.46875 -32.671875 Z M 13.523438 -50.734375 C 13.523438 -56.363281 19.347656 -59.816406 24.875 -59.816406 C 33.164062 -59.816406 45.011719 -54.089844 45.011719 -43.824219 C 45.011719 -37.210938 34.054688 -36.421875 24.777344 -36.421875 C 16.78125 -36.421875 13.523438 -43.726562 13.523438 -50.734375 Z M 13.523438 -50.734375 "/></g></g></g><g fill="#6ad4b8" fill-opacity="1"><g transform="translate(473.056977, 365.232424)"><g><path d="M 30.402344 1.480469 C 35.535156 1.480469 41.554688 -0.199219 46.789062 -8.6875 C 47.476562 -9.773438 48.5625 -10.464844 48.5625 -9.082031 L 48.5625 -8.09375 C 48.5625 -3.058594 49.75 0 53.992188 0 L 78.175781 0 C 75.511719 -2.664062 74.722656 -6.019531 74.722656 -11.648438 L 74.722656 -96.339844 C 74.722656 -98.3125 74.621094 -100.1875 71.761719 -100.1875 C 65.9375 -100.1875 47.875 -91.105469 43.925781 -89.429688 C 43.726562 -89.332031 42.839844 -89.132812 42.839844 -88.144531 C 42.839844 -86.960938 44.023438 -86.863281 44.320312 -86.765625 C 48.957031 -85.183594 48.5625 -80.347656 48.5625 -79.164062 L 48.5625 -65.34375 C 48.5625 -62.875 47.378906 -62.777344 46.984375 -62.777344 C 45.011719 -62.777344 41.359375 -70.574219 30.402344 -70.574219 C 10.957031 -70.574219 2.46875 -50.933594 2.46875 -33.164062 C 2.46875 -14.015625 12.632812 1.480469 30.402344 1.480469 Z M 41.457031 -60.210938 C 47.578125 -60.210938 48.5625 -50.734375 48.5625 -45.703125 L 48.5625 -26.453125 C 48.5625 -21.023438 47.773438 -10.859375 39.878906 -10.859375 C 28.921875 -10.859375 28.527344 -24.480469 28.527344 -35.929688 C 28.527344 -46.6875 30.5 -60.210938 41.457031 -60.210938 Z M 41.457031 -60.210938 "/></g></g></g><g fill="#6ad4b8" fill-opacity="1"><g transform="translate(551.726544, 365.232424)"><g><path d="M 2.46875 -32.671875 C 2.46875 -13.226562 19.644531 1.480469 38.59375 1.480469 C 57.546875 1.480469 65.9375 -11.945312 65.9375 -19.445312 C 65.9375 -21.125 65.046875 -21.519531 64.355469 -21.519531 C 62.382812 -21.519531 60.902344 -16.386719 51.523438 -16.386719 C 40.175781 -16.386719 24.28125 -26.550781 24.28125 -30.105469 C 24.28125 -31.785156 25.566406 -31.683594 26.550781 -31.683594 C 43.925781 -31.683594 65.441406 -27.835938 65.441406 -44.222656 C 65.441406 -57.84375 55.472656 -70.574219 37.902344 -70.574219 C 14.804688 -70.574219 2.46875 -54.289062 2.46875 -32.671875 Z M 13.523438 -50.734375 C 13.523438 -56.363281 19.347656 -59.816406 24.875 -59.816406 C 33.164062 -59.816406 45.011719 -54.089844 45.011719 -43.824219 C 45.011719 -37.210938 34.054688 -36.421875 24.777344 -36.421875 C 16.78125 -36.421875 13.523438 -43.726562 13.523438 -50.734375 Z M 13.523438 -50.734375 "/></g></g></g><g fill="#6ad4b8" fill-opacity="1"><g transform="translate(619.637017, 365.232424)"><g><path d="M 1.480469 -49.355469 C 1.480469 -30.007812 22.308594 -23.691406 38.296875 -23.691406 C 45.800781 -23.691406 51.625 -24.972656 55.277344 -24.972656 C 57.941406 -24.972656 59.421875 -24.28125 59.421875 -21.914062 C 59.421875 -16.78125 52.316406 -12.832031 45.503906 -12.832031 C 27.441406 -12.832031 17.371094 -25.863281 11.449219 -25.863281 C 7.402344 -25.863281 1.972656 -11.648438 1.972656 -7.402344 C 1.972656 -2.367188 21.617188 1.480469 35.140625 1.480469 C 46.292969 1.480469 64.753906 -4.144531 64.753906 -22.40625 C 64.753906 -41.457031 45.308594 -46.589844 27.835938 -49.648438 C 19.542969 -51.128906 12.929688 -53.105469 12.929688 -57.941406 C 12.929688 -62.875 17.371094 -64.753906 20.828125 -64.753906 C 33.164062 -64.753906 42.640625 -45.308594 55.769531 -45.308594 C 59.324219 -45.308594 64.949219 -52.117188 64.949219 -58.730469 C 64.949219 -64.457031 50.636719 -70.574219 33.265625 -70.574219 C 18.359375 -70.574219 1.480469 -65.839844 1.480469 -49.355469 Z M 1.480469 -49.355469 "/></g></g></g><path stroke-linecap="butt" transform="matrix(0.75, 0, 0, 0.75, 73.182407, 255.870007)" fill="none" stroke-linejoin="miter" d="M 59.345335 140.001455 C 55.777626 136.433747 54.751585 131.964997 54.751585 124.480621 L 54.751585 88.683745 C 54.751585 74.063952 60.277626 69.985827 66.314085 69.985827 C 72.100544 69.985827 73.834919 75.642077 73.834919 81.683744 L 73.834919 124.480621 C 73.834919 131.964997 72.772419 136.433747 69.209919 140.001455 L 113.293254 140.001455 C 109.756796 136.433747 108.699504 131.964997 108.699504 124.480621 L 108.699504 101.954579 L 108.569296 86.308744 C 109.209921 73.678536 114.480754 69.985827 120.137004 69.985827 C 125.954713 69.985827 127.65263 75.642077 127.65263 81.683744 L 127.65263 124.480621 C 127.65263 131.964997 126.595338 136.433747 123.05888 140.001455 L 167.142215 140.001455 C 163.579715 136.433747 162.517215 131.964997 162.517215 124.480621 L 162.517215 101.954579 L 162.387007 76.829577 C 162.387007 63.142077 159.110965 45.886867 139.897422 45.886867 C 117.663046 45.886867 114.897421 64.204577 109.501587 64.204577 C 109.084921 64.204577 107.892212 64.459785 106.996379 62.75666 C 104.61617 53.532701 98.83492 45.886867 86.079711 45.886867 C 63.808877 45.886867 61.04846 64.204577 55.647418 64.204577 C 55.137001 64.204577 54.751585 64.204577 54.751585 61.022285 L 54.751585 58.803535 C 54.751585 52.089993 53.173459 47.881659 47.485959 47.881659 L 15.261999 47.881659 C 18.824499 51.412909 19.855749 55.91291 19.855749 63.397285 L 19.855749 124.480621 C 19.855749 131.964997 18.824499 136.433747 15.261999 140.001455 Z M 171.069299 96.428537 C 171.069299 122.36083 193.980758 141.959789 219.267218 141.959789 C 244.522427 141.959789 255.704719 124.063955 255.704719 114.069163 C 255.704719 111.819162 254.517219 111.308746 253.616178 111.308746 C 250.980761 111.308746 248.985969 118.152496 236.491177 118.152496 C 221.355759 118.152496 200.178675 104.589995 200.178675 99.866037 C 200.178675 97.621245 201.8818 97.746245 203.199509 97.746245 C 226.366176 97.746245 255.058886 102.88687 255.058886 81.037911 C 255.058886 62.886868 241.756802 45.886867 218.334926 45.886867 C 187.522424 45.886867 171.069299 67.605619 171.069299 96.428537 Z M 185.819299 72.366035 C 185.819299 64.845202 193.595341 60.251452 200.949508 60.251452 C 212.006801 60.251452 227.814093 67.866035 227.814093 81.553536 C 227.814093 90.38687 213.194301 91.44937 200.824508 91.44937 C 190.157841 91.44937 185.819299 81.683744 185.819299 72.366035 Z M 259.657845 140.001455 L 303.74118 140.001455 C 300.204722 136.433747 299.14743 131.964997 299.14743 124.480621 L 299.14743 88.683745 C 299.14743 81.423328 300.720347 71.433744 311.772431 71.433744 C 324.532848 71.433744 323.084931 83.001453 328.741181 83.001453 C 331.116182 83.001453 334.137015 76.027494 337.834932 68.798327 C 341.110974 62.209785 344.933891 55.366035 344.933891 53.793118 C 344.933891 48.652493 335.454723 45.886867 328.480765 45.886867 C 307.824514 45.886867 304.673472 64.204577 300.048472 64.204577 C 299.532847 64.204577 299.14743 64.204577 299.14743 61.022285 L 299.14743 58.803535 C 299.14743 52.089993 297.574513 47.881659 291.887013 47.881659 L 259.657845 47.881659 C 263.225553 51.412909 264.251595 55.91291 264.251595 63.397285 L 264.251595 124.480621 C 264.251595 131.964997 263.225553 136.433747 259.657845 140.001455 Z M 349.532849 96.428537 C 349.532849 122.36083 372.444309 141.959789 397.730768 141.959789 C 422.985978 141.959789 434.16827 124.063955 434.16827 114.069163 C 434.16827 111.819162 432.975562 111.308746 432.079728 111.308746 C 429.444311 111.308746 427.44952 118.152496 414.949519 118.152496 C 395.610976 118.152496 363.767225 95.657703 363.767225 74.194161 C 363.767225 66.293118 367.84535 60.50666 375.459934 60.50666 C 384.043267 60.50666 392.459935 67.220202 397.855768 74.839994 C 402.324518 81.168119 400.876602 85.923328 404.027643 85.923328 C 406.017227 85.923328 413.121394 79.079577 418.647436 74.194161 C 423.371394 69.985827 429.444311 65.392077 429.444311 61.954577 C 429.444311 55.621243 412.189102 45.886867 397.985977 45.886867 C 365.084933 45.886867 349.532849 69.053535 349.532849 96.428537 Z M 440.079729 96.428537 C 440.079729 122.36083 462.991188 141.959789 488.277648 141.959789 C 513.532857 141.959789 524.715149 124.063955 524.715149 114.069163 C 524.715149 111.819162 523.522441 111.308746 522.626608 111.308746 C 519.991191 111.308746 517.996399 118.152496 505.501607 118.152496 C 490.366189 118.152496 469.189105 104.589995 469.189105 99.866037 C 469.189105 97.621245 470.89223 97.746245 472.209939 97.746245 C 495.376606 97.746245 524.069316 102.88687 524.069316 81.037911 C 524.069316 62.886868 510.767232 45.886867 487.345356 45.886867 C 456.532854 45.886867 440.079729 67.605619 440.079729 96.428537 Z M 454.829729 72.366035 C 454.829729 64.845202 462.605771 60.251452 469.959938 60.251452 C 481.017231 60.251452 496.824523 67.866035 496.824523 81.553536 C 496.824523 90.38687 482.204731 91.44937 469.834938 91.44937 C 459.163063 91.44937 454.829729 81.683744 454.829729 72.366035 Z M 567.897443 141.959789 C 574.741194 141.959789 582.746402 139.741039 589.746403 128.433747 C 590.647444 126.95458 592.095361 126.053538 592.095361 127.886872 L 592.095361 129.20458 C 592.095361 135.918122 593.668278 140.001455 599.355778 140.001455 L 631.584946 140.001455 C 628.017238 136.433747 626.991196 131.964997 626.991196 124.480621 L 626.991196 11.537907 C 626.991196 8.902491 626.860988 6.428532 623.038071 6.428532 C 615.262029 6.428532 591.194319 18.511866 585.923486 20.761866 C 585.668277 20.886866 584.480777 21.147283 584.480777 22.464991 C 584.480777 24.037908 586.053694 24.199366 586.439111 24.329575 C 592.642236 26.418117 592.095361 32.87645 592.095361 34.449367 L 592.095361 52.860826 C 592.095361 56.168118 590.517236 56.298326 590.006819 56.298326 C 587.371403 56.298326 582.485986 45.886867 567.897443 45.886867 C 541.970359 45.886867 530.626608 72.074369 530.626608 95.787912 C 530.626608 121.29833 544.1839 141.959789 567.897443 141.959789 Z M 582.616194 59.704577 C 590.777653 59.704577 592.095361 72.366035 592.095361 79.079577 L 592.095361 104.720204 C 592.095361 111.980621 591.032861 125.506663 580.527652 125.506663 C 565.90786 125.506663 565.392235 107.355621 565.392235 92.089995 C 565.392235 77.761869 568.027652 59.704577 582.616194 59.704577 Z M 635.517238 96.428537 C 635.517238 122.36083 658.428698 141.959789 683.715157 141.959789 C 708.970367 141.959789 720.152659 124.063955 720.152659 114.069163 C 720.152659 111.819162 718.965159 111.308746 718.064117 111.308746 C 715.428701 111.308746 713.439117 118.152496 700.939117 118.152496 C 685.803699 118.152496 664.631823 104.589995 664.631823 99.866037 C 664.631823 97.621245 666.334948 97.746245 667.652657 97.746245 C 690.819324 97.746245 719.512034 102.88687 719.512034 81.037911 C 719.512034 62.886868 706.20995 45.886867 682.782866 45.886867 C 651.970364 45.886867 635.517238 67.605619 635.517238 96.428537 Z M 650.267239 72.366035 C 650.267239 64.845202 658.043281 60.251452 665.402656 60.251452 C 676.45474 60.251452 692.262033 67.866035 692.262033 81.553536 C 692.262033 90.38687 677.64224 91.44937 665.272448 91.44937 C 654.605781 91.44937 650.267239 81.683744 650.267239 72.366035 Z M 724.751618 74.194161 C 724.751618 99.996245 752.543286 108.412912 773.84537 108.412912 C 783.871412 108.412912 791.616204 106.709787 796.496413 106.709787 C 800.032871 106.709787 802.027663 107.610829 802.027663 110.793121 C 802.027663 117.636871 792.548496 122.907705 783.454746 122.907705 C 759.387036 122.907705 745.954744 105.522287 738.053702 105.522287 C 732.65266 105.522287 725.423493 124.480621 725.423493 130.136872 C 725.423493 136.850414 751.610994 141.959789 769.637037 141.959789 C 784.512037 141.959789 809.126622 134.475414 809.126622 110.116037 C 809.126622 84.735828 783.194329 77.892077 759.902661 73.808744 C 748.850577 71.81916 740.043285 69.183744 740.043285 62.75666 C 740.043285 56.168118 745.954744 53.66291 750.548494 53.66291 C 767.00162 53.66291 779.631829 79.595202 797.142246 79.595202 C 801.897455 79.595202 809.38183 70.501452 809.38183 61.69416 C 809.38183 54.048326 790.298496 45.886867 767.131828 45.886867 C 747.272452 45.886867 724.751618 52.214993 724.751618 74.194161 Z M 724.751618 74.194161 " stroke="#00a97c" stroke-width="4.935525" stroke-opacity="1" stroke-miterlimit="4"/><g fill="#ffcdd8" fill-opacity="1"><g transform="translate(81.161968, 483.491012)"><g><path d="M 0 -69.089844 C 4.144531 -65.4375 6.019531 -57.34375 8.390625 -49.351562 C 11.746094 -38.097656 13.421875 -32.769531 15.792969 -23.492188 C 18.359375 -13.523438 21.21875 0 29.3125 0 L 50.929688 0 C 53.691406 0 56.554688 0.0976562 58.628906 -5.921875 C 59.714844 -9.179688 60.898438 -12.4375 62.082031 -15.691406 C 64.351562 -7.699219 67.511719 0 73.53125 0 L 95.148438 0 C 97.910156 0 100.871094 0.0976562 102.84375 -5.921875 C 109.65625 -26.550781 118.441406 -48.363281 118.441406 -57.9375 C 118.441406 -64.351562 115.480469 -70.570312 107.683594 -70.570312 C 97.417969 -70.570312 84.785156 -63.367188 84.785156 -57.148438 C 84.785156 -52.113281 102.648438 -54.1875 102.648438 -29.019531 C 102.648438 -17.964844 98.996094 -6.515625 95.542969 -6.515625 C 90.707031 -6.515625 84.785156 -32.273438 80.242188 -49.351562 C 78.269531 -56.851562 76.394531 -63.5625 78.761719 -69.089844 L 44.21875 -69.089844 C 48.363281 -65.4375 50.335938 -57.34375 52.605469 -49.351562 C 55.171875 -40.46875 56.851562 -35.335938 58.628906 -29.019531 L 58.527344 -29.019531 C 60.109375 -20.824219 54.777344 -6.515625 51.324219 -6.515625 C 46.488281 -6.515625 40.566406 -32.273438 36.027344 -49.351562 C 34.050781 -56.851562 32.175781 -63.5625 34.546875 -69.089844 Z M 0 -69.089844 "/></g></g></g><g fill="#ffcdd8" fill-opacity="1"><g transform="translate(202.063676, 483.491012)"><g><path d="M 2.46875 -15.398438 C 2.46875 -5.921875 10.460938 1.480469 20.035156 1.480469 C 34.148438 1.480469 37.011719 -7.699219 41.15625 -7.699219 C 42.636719 -7.699219 43.429688 -5.921875 43.722656 -4.242188 C 44.21875 -1.578125 45.894531 0 48.855469 0 L 73.039062 0 C 70.375 -2.664062 69.582031 -6.019531 69.582031 -11.648438 L 69.582031 -40.960938 C 69.582031 -55.074219 58.925781 -70.570312 36.222656 -70.570312 C 25.761719 -70.570312 15.398438 -69.089844 8.6875 -62.675781 C 6.121094 -60.304688 6.710938 -56.753906 6.710938 -53.398438 L 6.710938 -47.96875 C 6.710938 -46.289062 8.191406 -44.808594 9.769531 -44.808594 C 15.890625 -44.808594 22.304688 -64.945312 34.742188 -65.140625 C 42.046875 -65.242188 43.328125 -59.515625 43.328125 -55.171875 C 43.328125 -53.398438 42.636719 -51.421875 39.777344 -50.832031 C 21.21875 -46.980469 2.46875 -36.421875 2.46875 -15.398438 Z M 39.777344 -44.414062 C 42.441406 -44.414062 43.328125 -42.738281 43.328125 -38.296875 C 43.328125 -32.175781 43.429688 -28.523438 43.429688 -22.304688 C 43.429688 -15.890625 40.761719 -11.054688 35.433594 -11.054688 C 28.128906 -11.054688 26.058594 -17.765625 26.058594 -24.675781 C 26.058594 -36.816406 33.359375 -44.414062 39.777344 -44.414062 Z M 39.777344 -44.414062 "/></g></g></g><g fill="#ffcdd8" fill-opacity="1"><g transform="translate(275.591654, 483.491012)"><g><path d="M 0.492188 -86.757812 C 5.230469 -85.472656 4.738281 -80.34375 4.738281 -79.15625 L 4.738281 -8.09375 C 4.738281 -3.058594 5.921875 0 10.167969 0 L 34.347656 0 C 31.683594 -2.664062 30.894531 -6.019531 30.894531 -11.648438 L 30.894531 -96.332031 C 30.894531 -98.304688 30.792969 -100.179688 27.933594 -100.179688 C 22.109375 -100.179688 3.949219 -91.296875 0.0976562 -89.421875 C -0.0976562 -89.324219 -0.988281 -89.125 -0.988281 -88.140625 C -0.988281 -86.953125 0.199219 -86.855469 0.492188 -86.757812 Z M 0.492188 -86.757812 "/></g></g></g><g fill="#ffcdd8" fill-opacity="1"><g transform="translate(310.924576, 483.491012)"><g><path d="M 1.480469 -49.351562 C 1.480469 -30.003906 22.304688 -23.6875 38.296875 -23.6875 C 45.796875 -23.6875 51.621094 -24.972656 55.273438 -24.972656 C 57.9375 -24.972656 59.417969 -24.28125 59.417969 -21.910156 C 59.417969 -16.777344 52.3125 -12.832031 45.5 -12.832031 C 27.4375 -12.832031 17.371094 -25.859375 11.449219 -25.859375 C 7.402344 -25.859375 1.972656 -11.648438 1.972656 -7.402344 C 1.972656 -2.367188 21.617188 1.480469 35.136719 1.480469 C 46.289062 1.480469 64.746094 -4.144531 64.746094 -22.40625 C 64.746094 -41.453125 45.304688 -46.585938 27.832031 -49.644531 C 19.542969 -51.125 12.929688 -53.101562 12.929688 -57.9375 C 12.929688 -62.871094 17.371094 -64.746094 20.824219 -64.746094 C 33.164062 -64.746094 42.636719 -45.304688 55.765625 -45.304688 C 59.320312 -45.304688 64.945312 -52.113281 64.945312 -58.726562 C 64.945312 -64.449219 50.632812 -70.570312 33.261719 -70.570312 C 18.359375 -70.570312 1.480469 -65.832031 1.480469 -49.351562 Z M 1.480469 -49.351562 "/></g></g></g><g fill="#ffcdd8" fill-opacity="1"><g transform="translate(377.346493, 483.491012)"><g><path d="M 0.492188 -86.757812 C 5.230469 -85.472656 4.738281 -80.34375 4.738281 -79.15625 L 4.738281 -11.648438 C 4.738281 -6.019531 3.949219 -2.664062 1.28125 0 L 34.347656 0 C 31.683594 -2.664062 30.894531 -6.019531 30.894531 -11.648438 L 30.894531 -38.492188 C 30.894531 -49.449219 35.039062 -52.507812 39.578125 -52.507812 C 43.921875 -52.507812 45.203125 -48.265625 45.203125 -43.722656 L 45.203125 -11.648438 C 45.203125 -6.019531 44.414062 -2.664062 41.75 0 L 74.816406 0 C 72.148438 -2.664062 71.359375 -6.019531 71.359375 -11.648438 L 71.359375 -28.523438 L 71.261719 -47.375 C 71.261719 -57.640625 68.792969 -70.570312 54.382812 -70.570312 C 37.703125 -70.570312 35.628906 -56.851562 31.585938 -56.851562 C 31.484375 -56.851562 31.1875 -56.851562 30.894531 -56.851562 L 30.894531 -96.332031 C 30.894531 -98.304688 30.792969 -100.179688 27.933594 -100.179688 C 22.109375 -100.179688 3.949219 -91.296875 0.0976562 -89.421875 C -0.0976562 -89.324219 -0.988281 -89.125 -0.988281 -88.140625 C -0.988281 -86.953125 0.199219 -86.855469 0.492188 -86.757812 Z M 0.492188 -86.757812 "/></g></g></g><path stroke-linecap="butt" transform="matrix(0.75, 0, 0, 0.75, 76.799999, 374.129063)" fill="none" stroke-linejoin="miter" d="M 0.00104273 47.88521 C 5.527085 52.739377 8.032293 63.531044 11.183335 74.197711 C 15.646877 89.20292 17.896877 96.307087 21.04271 108.67688 C 24.480211 121.973755 28.303127 139.999798 39.100003 139.999798 L 67.922921 139.999798 C 71.58438 139.999798 75.407296 140.130006 78.167713 132.098756 C 79.61563 127.760214 81.188547 123.421672 82.766672 119.08313 C 85.818755 129.749797 90.027089 139.999798 98.058339 139.999798 L 126.876049 139.999798 C 130.537508 139.999798 134.490633 140.130006 137.12605 132.098756 C 146.2198 104.593546 157.912509 75.51542 157.912509 62.760211 C 157.912509 54.182085 153.959384 45.895626 143.584383 45.895626 C 129.896882 45.895626 113.02709 55.499794 113.02709 63.791461 C 113.02709 70.505003 136.870841 67.744586 136.870841 101.317504 C 136.870841 116.062297 131.985424 131.322714 127.391674 131.322714 C 120.93334 131.322714 113.02709 96.978962 106.990631 74.197711 C 104.355215 64.208127 101.850006 55.244585 105.02709 47.88521 L 58.954171 47.88521 C 64.480213 52.739377 67.115629 63.531044 70.136463 74.197711 C 73.573963 86.057087 75.792713 92.900837 78.167713 101.317504 L 78.042713 101.317504 C 80.131255 112.23938 73.027088 131.322714 68.433338 131.322714 C 61.975004 131.322714 54.073962 96.978962 48.032295 74.197711 C 45.396878 64.208127 42.89167 55.244585 46.073962 47.88521 Z M 164.480218 119.468547 C 164.480218 132.098756 175.146885 141.958131 187.902094 141.958131 C 206.73022 141.958131 210.553136 129.749797 216.079178 129.749797 C 218.037512 129.749797 219.100012 132.098756 219.516679 134.343548 C 220.157304 137.880006 222.407304 139.999798 226.360429 139.999798 L 258.584389 139.999798 C 255.01668 136.432089 253.990639 131.968547 253.990639 124.484172 L 253.990639 85.380003 C 253.990639 66.551878 239.756263 45.895626 209.490636 45.895626 C 195.547927 45.895626 181.730218 47.88521 172.766676 56.432085 C 169.360426 59.583127 170.167718 64.338336 170.167718 68.801878 L 170.167718 76.031045 C 170.167718 78.281045 172.126051 80.239378 174.245843 80.239378 C 182.376052 80.239378 190.954177 53.411252 207.532303 53.156044 C 217.266678 53.025835 218.969804 60.640419 218.969804 66.426878 C 218.969804 68.801878 218.037512 71.437294 214.245845 72.239378 C 189.50626 77.348753 164.480218 91.45292 164.480218 119.468547 Z M 214.245845 80.786253 C 217.782304 80.786253 218.969804 83.005003 218.969804 88.947712 C 218.969804 97.109171 219.100012 101.958129 219.100012 110.249796 C 219.100012 118.827922 215.563553 125.255005 208.433345 125.255005 C 198.698969 125.255005 195.933344 116.322713 195.933344 107.098755 C 195.933344 90.906045 205.66772 80.786253 214.245845 80.786253 Z M 259.881264 24.338334 C 266.209389 26.036251 265.568764 32.880001 265.568764 34.458126 L 265.568764 129.202922 C 265.568764 135.921673 267.141681 139.999798 272.797931 139.999798 L 305.021891 139.999798 C 301.490641 136.432089 300.428141 131.968547 300.428141 124.484172 L 300.428141 11.546666 C 300.428141 8.916458 300.297933 6.4425 296.475016 6.4425 C 288.735432 6.4425 264.506264 18.265417 259.365639 20.770625 C 259.110431 20.895625 257.92293 21.156042 257.92293 22.47375 C 257.92293 24.046667 259.495847 24.208125 259.881264 24.338334 Z M 308.30835 74.197711 C 308.30835 99.999796 336.100018 108.416463 357.402102 108.416463 C 367.428144 108.416463 375.167728 106.713338 380.053145 106.713338 C 383.589603 106.713338 385.579187 107.61438 385.579187 110.796671 C 385.579187 117.640422 376.10002 122.906047 367.011478 122.906047 C 342.943768 122.906047 329.516684 105.525838 321.610434 105.525838 C 316.2146 105.525838 308.985433 124.484172 308.985433 130.135214 C 308.985433 136.853964 335.167726 141.958131 353.193769 141.958131 C 368.068769 141.958131 392.678145 134.473756 392.678145 110.119588 C 392.678145 84.739378 366.751061 77.895628 343.459393 73.812295 C 332.407309 71.822711 323.605225 69.187294 323.605225 62.760211 C 323.605225 56.176877 329.516684 53.671669 334.110434 53.671669 C 350.558352 53.671669 363.188561 79.598753 380.698978 79.598753 C 385.448978 79.598753 392.938562 70.505003 392.938562 61.702919 C 392.938562 54.057085 373.855228 45.895626 350.68856 45.895626 C 330.834392 45.895626 308.30835 52.223752 308.30835 74.197711 Z M 395.553146 24.338334 C 401.886479 26.036251 401.240646 32.880001 401.240646 34.458126 L 401.240646 124.484172 C 401.240646 131.968547 400.183354 136.432089 396.615646 139.999798 L 440.698981 139.999798 C 437.162523 136.432089 436.100023 131.968547 436.100023 124.484172 L 436.100023 88.692504 C 436.100023 74.072711 441.626065 69.989378 447.667732 69.989378 C 453.48544 69.989378 455.188565 75.645628 455.188565 81.687295 L 455.188565 124.484172 C 455.188565 131.968547 454.126065 136.432089 450.589607 139.999798 L 494.672942 139.999798 C 491.105234 136.432089 490.047942 131.968547 490.047942 124.484172 L 490.047942 101.958129 L 489.917734 76.833128 C 489.917734 63.145627 486.641692 45.895626 467.428149 45.895626 C 445.193773 45.895626 442.433356 64.208127 437.032314 64.208127 C 436.907314 64.208127 436.485439 64.208127 436.100023 64.208127 L 436.100023 11.546666 C 436.100023 8.916458 435.975023 6.4425 432.152106 6.4425 C 424.407314 6.4425 400.183354 18.265417 395.042729 20.770625 C 394.782312 20.895625 393.594812 21.156042 393.594812 22.47375 C 393.594812 24.046667 395.167729 24.208125 395.553146 24.338334 Z M 395.553146 24.338334 " stroke="#fe9bb2" stroke-width="4.935" stroke-opacity="1" stroke-miterlimit="4"/></svg>